<svg width="32" height="32" viewBox="0 0 32 32" fill="none" xmlns="http://www.w3.org/2000/svg">
  <path d="M7.712 18.096V16.176H10.88V21.824C9.35467 22.0693 8.11733 22.192 7.168 22.192C5.472 22.192 4.304 21.7387 3.664 20.832C3.03467 19.9253 2.72 18.4853 2.72 16.512C2.72 14.5387 3.05067 13.1147 3.712 12.24C4.37333 11.3653 5.49867 10.928 7.088 10.928C8.08 10.928 9.152 11.04 10.304 11.264L10.88 11.376L10.816 13.088C9.536 12.9493 8.48533 12.88 7.664 12.88C6.85333 12.88 6.28267 12.976 5.952 13.168C5.62133 13.36 5.376 13.7173 5.216 14.24C5.06667 14.752 4.992 15.6373 4.992 16.896C4.992 18.144 5.14667 19.0187 5.456 19.52C5.76533 20.0213 6.40533 20.272 7.376 20.272L8.704 20.208V18.096H7.712ZM12.9653 22V11.12H20.0052V13.04H15.1733V15.584H19.0453V17.472H15.1733V20.08H20.0052V22H12.9653ZM20.8486 13.072V11.12H28.8486V13.072H25.9686V22H23.7606V13.072H20.8486Z" fill="white"/>
  <path d="M7.712 18.096H6.712V19.096H7.712V18.096ZM7.712 16.176V15.176H6.712V16.176H7.712ZM10.88 16.176H11.88V15.176H10.88V16.176ZM10.88 21.824L11.0388 22.8113L11.88 22.676V21.824H10.88ZM3.664 20.832L2.84248 21.4022L2.84703 21.4087L3.664 20.832ZM10.304 11.264L10.1131 12.2456L10.1131 12.2456L10.304 11.264ZM10.88 11.376L11.8793 11.4134L11.9113 10.5578L11.0709 10.3944L10.88 11.376ZM10.816 13.088L10.7083 14.0822L11.7752 14.1978L11.8153 13.1254L10.816 13.088ZM5.952 13.168L5.44986 12.3032L5.44986 12.3032L5.952 13.168ZM5.216 14.24L4.25972 13.9473L4.256 13.96L5.216 14.24ZM5.456 19.52L4.60496 20.0451L4.60496 20.0451L5.456 19.52ZM7.376 20.272V21.272H7.40008L7.42414 21.2708L7.376 20.272ZM8.704 20.208L8.75214 21.2068L9.704 21.161V20.208H8.704ZM8.704 18.096H9.704V17.096H8.704V18.096ZM8.712 18.096V16.176H6.712V18.096H8.712ZM7.712 17.176H10.88V15.176H7.712V17.176ZM9.88 16.176V21.824H11.88V16.176H9.88ZM10.7212 20.8367C9.22018 21.0781 8.04168 21.192 7.168 21.192V23.192C8.19299 23.192 9.48916 23.0606 11.0388 22.8113L10.7212 20.8367ZM7.168 21.192C5.61846 21.192 4.85009 20.7782 4.48097 20.2553L2.84703 21.4087C3.75791 22.6991 5.32554 23.192 7.168 23.192V21.192ZM4.4855 20.2618C4.03269 19.6094 3.72 18.422 3.72 16.512H1.72C1.72 18.5487 2.03664 20.2412 2.8425 21.4022L4.4855 20.2618ZM3.72 16.512C3.72 14.6031 4.049 13.4524 4.50966 12.8431L2.91434 11.6369C2.05233 12.777 1.72 14.4742 1.72 16.512H3.72ZM4.50966 12.8431C4.9078 12.3165 5.66427 11.928 7.088 11.928V9.928C5.33307 9.928 3.83886 10.4141 2.91434 11.6369L4.50966 12.8431ZM7.088 11.928C8.00557 11.928 9.01295 12.0317 10.1131 12.2456L10.4949 10.2824C9.29105 10.0483 8.15443 9.928 7.088 9.928V11.928ZM10.1131 12.2456L10.6891 12.3576L11.0709 10.3944L10.4949 10.2824L10.1131 12.2456ZM9.8807 11.3386L9.8167 13.0506L11.8153 13.1254L11.8793 11.4134L9.8807 11.3386ZM10.9237 12.0938C9.62553 11.9532 8.53549 11.88 7.664 11.88V13.88C8.43518 13.88 9.44647 13.9455 10.7083 14.0822L10.9237 12.0938ZM7.664 11.88C6.83362 11.88 6.02738 11.9679 5.44986 12.3032L6.45414 14.0328C6.53795 13.9841 6.87305 13.88 7.664 13.88V11.88ZM5.44986 12.3032C4.823 12.6672 4.46204 13.2866 4.2598 13.9473L6.1722 14.5327C6.28996 14.148 6.41967 14.0528 6.45414 14.0328L5.44986 12.3032ZM4.256 13.96C4.06277 14.6225 3.992 15.636 3.992 16.896H5.992C5.992 15.6386 6.07057 14.8815 6.176 14.52L4.256 13.96ZM3.992 16.896C3.992 18.1641 4.13775 19.2879 4.60496 20.0451L6.30704 18.9949C6.15558 18.7494 5.992 18.1239 5.992 16.896H3.992ZM4.60496 20.0451C5.19167 20.996 6.29017 21.272 7.376 21.272V19.272C6.5205 19.272 6.339 19.0467 6.30704 18.9949L4.60496 20.0451ZM7.42414 21.2708L8.75214 21.2068L8.65586 19.2092L7.32786 19.2732L7.42414 21.2708ZM9.704 20.208V18.096H7.704V20.208H9.704ZM8.704 17.096H7.712V19.096H8.704V17.096ZM12.9653 22H11.9653V23H12.9653V22ZM12.9653 11.12V10.12H11.9653V11.12H12.9653ZM20.0052 11.12H21.0052V10.12H20.0052V11.12ZM20.0052 13.04V14.04H21.0052V13.04H20.0052ZM15.1733 13.04V12.04H14.1733V13.04H15.1733ZM15.1733 15.584H14.1733V16.584H15.1733V15.584ZM19.0453 15.584H20.0453V14.584H19.0453V15.584ZM19.0453 17.472V18.472H20.0453V17.472H19.0453ZM15.1733 17.472V16.472H14.1733V17.472H15.1733ZM15.1733 20.08H14.1733V21.08H15.1733V20.08ZM20.0052 20.08H21.0052V19.08H20.0052V20.08ZM20.0052 22V23H21.0052V22H20.0052ZM13.9653 22V11.12H11.9653V22H13.9653ZM12.9653 12.12H20.0052V10.12H12.9653V12.12ZM19.0052 11.12V13.04H21.0052V11.12H19.0052ZM20.0052 12.04H15.1733V14.04H20.0052V12.04ZM14.1733 13.04V15.584H16.1733V13.04H14.1733ZM15.1733 16.584H19.0453V14.584H15.1733V16.584ZM18.0453 15.584V17.472H20.0453V15.584H18.0453ZM19.0453 16.472H15.1733V18.472H19.0453V16.472ZM14.1733 17.472V20.08H16.1733V17.472H14.1733ZM15.1733 21.08H20.0052V19.08H15.1733V21.08ZM19.0052 20.08V22H21.0052V20.08H19.0052ZM20.0052 21H12.9653V23H20.0052V21ZM20.8486 13.072H19.8486V14.072H20.8486V13.072ZM20.8486 11.12V10.12H19.8486V11.12H20.8486ZM28.8486 11.12H29.8486V10.12H28.8486V11.12ZM28.8486 13.072V14.072H29.8486V13.072H28.8486ZM25.9686 13.072V12.072H24.9686V13.072H25.9686ZM25.9686 22V23H26.9686V22H25.9686ZM23.7606 22H22.7606V23H23.7606V22ZM23.7606 13.072H24.7606V12.072H23.7606V13.072ZM21.8486 13.072V11.12H19.8486V13.072H21.8486ZM20.8486 12.12H28.8486V10.12H20.8486V12.12ZM27.8486 11.12V13.072H29.8486V11.12H27.8486ZM28.8486 12.072H25.9686V14.072H28.8486V12.072ZM24.9686 13.072V22H26.9686V13.072H24.9686ZM25.9686 21H23.7606V23H25.9686V21ZM24.7606 22V13.072H22.7606V22H24.7606ZM23.7606 12.072H20.8486V14.072H23.7606V12.072Z" fill="#61AFFE"/>
</svg>