<svg width="21" height="8" viewBox="0 0 21 8" fill="none" xmlns="http://www.w3.org/2000/svg">
  <path d="M3.58105 8H0.991211V-2.38419e-07H3.66309C4.44694 -2.38419e-07 5.12012 0.160156 5.68262 0.480469C6.24512 0.798177 6.67611 1.25521 6.97559 1.85156C7.27767 2.44531 7.42871 3.15755 7.42871 3.98828C7.42871 4.82161 7.27637 5.53776 6.97168 6.13672C6.6696 6.73568 6.2321 7.19661 5.65918 7.51953C5.08626 7.83984 4.39355 8 3.58105 8ZM2.19824 6.94531H3.51465C4.12402 6.94531 4.63053 6.83073 5.03418 6.60156C5.43783 6.36979 5.73991 6.03516 5.94043 5.59766C6.14095 5.15755 6.24121 4.62109 6.24121 3.98828C6.24121 3.36068 6.14095 2.82812 5.94043 2.39062C5.74251 1.95312 5.44694 1.62109 5.05371 1.39453C4.66048 1.16797 4.1722 1.05469 3.58887 1.05469H2.19824V6.94531ZM8.92969 8V-2.38419e-07H13.9453V1.03906H10.1367V3.47656H13.6836V4.51172H10.1367V6.96094H13.9922V8H8.92969ZM15.5576 8V-2.38419e-07H16.7646V6.96094H20.3896V8H15.5576Z" fill="#F93E3E" />
</svg>
  