<svg width="22" height="10" viewBox="0 0 22 10" fill="none" xmlns="http://www.w3.org/2000/svg">
  <path d="M5.77686 3.52734C5.70133 3.29036 5.59977 3.07812 5.47217 2.89062C5.34717 2.70052 5.19743 2.53906 5.02295 2.40625C4.84847 2.27083 4.64925 2.16797 4.42529 2.09766C4.20394 2.02734 3.96045 1.99219 3.69482 1.99219C3.2443 1.99219 2.83805 2.10807 2.47607 2.33984C2.1141 2.57161 1.82764 2.91146 1.6167 3.35937C1.40837 3.80469 1.3042 4.35026 1.3042 4.99609C1.3042 5.64453 1.40967 6.19271 1.62061 6.64062C1.83154 7.08854 2.12061 7.42839 2.48779 7.66016C2.85498 7.89193 3.27295 8.00781 3.7417 8.00781C4.1766 8.00781 4.5555 7.91927 4.87842 7.74219C5.20394 7.5651 5.45524 7.3151 5.63232 6.99219C5.81201 6.66667 5.90186 6.28385 5.90186 5.84375L6.21436 5.90234H3.92529V4.90625H7.06982V5.81641C7.06982 6.48828 6.9266 7.07161 6.64014 7.56641C6.35628 8.05859 5.96305 8.4388 5.46045 8.70703C4.96045 8.97526 4.38753 9.10937 3.7417 9.10937C3.01774 9.10937 2.38232 8.94271 1.83545 8.60938C1.29118 8.27604 0.866699 7.80339 0.562012 7.19141C0.257324 6.57682 0.10498 5.84766 0.10498 5.00391C0.10498 4.36589 0.193522 3.79297 0.370605 3.28516C0.547689 2.77734 0.796387 2.34635 1.1167 1.99219C1.43962 1.63542 1.81852 1.36328 2.25342 1.17578C2.69092 0.985677 3.16878 0.890625 3.68701 0.890625C4.1193 0.890625 4.52165 0.954427 4.89404 1.08203C5.26904 1.20964 5.60238 1.39062 5.89404 1.625C6.18831 1.85937 6.4318 2.13802 6.62451 2.46094C6.81722 2.78125 6.94743 3.13672 7.01514 3.52734H5.77686ZM8.60205 9V1H13.6177V2.03906H9.80908V4.47656H13.356V5.51172H9.80908V7.96094H13.6646V9H8.60205ZM14.8354 2.03906V1H21.0269V2.03906H18.5308V9H17.3276V2.03906H14.8354Z" fill="#61AFFE" />
</svg>
  