<svg width="23" height="8" viewBox="0 0 23 8" fill="none" xmlns="http://www.w3.org/2000/svg">
  <path d="M0.0550426 7V0.454545H2.38814C2.89737 0.454545 3.31925 0.54723 3.65376 0.732599C3.98828 0.917968 4.23864 1.17152 4.40483 1.49325C4.57102 1.81286 4.65412 2.17294 4.65412 2.57351C4.65412 2.97621 4.56996 3.33842 4.40163 3.66016C4.23544 3.97976 3.98402 4.23331 3.64737 4.42081C3.31286 4.60618 2.89205 4.69886 2.38494 4.69886H0.78054V3.86151H2.29545C2.61719 3.86151 2.8782 3.80611 3.07848 3.69531C3.27876 3.58239 3.42578 3.42898 3.51953 3.23509C3.61328 3.04119 3.66016 2.82067 3.66016 2.57351C3.66016 2.32635 3.61328 2.10689 3.51953 1.91513C3.42578 1.72337 3.2777 1.57315 3.07528 1.46449C2.875 1.35582 2.6108 1.30149 2.28267 1.30149H1.04261V7H0.0550426ZM11.4976 3.72727C11.4976 4.42614 11.3698 5.02699 11.1141 5.52983C10.8584 6.03054 10.5079 6.41619 10.0626 6.68679C9.61941 6.95526 9.1155 7.08949 8.55087 7.08949C7.98411 7.08949 7.47807 6.95526 7.03276 6.68679C6.58958 6.41619 6.24015 6.02947 5.98446 5.52663C5.72878 5.02379 5.60094 4.42401 5.60094 3.72727C5.60094 3.02841 5.72878 2.42862 5.98446 1.92791C6.24015 1.42507 6.58958 1.03942 7.03276 0.770952C7.47807 0.500355 7.98411 0.365057 8.55087 0.365057C9.1155 0.365057 9.61941 0.500355 10.0626 0.770952C10.5079 1.03942 10.8584 1.42507 11.1141 1.92791C11.3698 2.42862 11.4976 3.02841 11.4976 3.72727ZM10.5196 3.72727C10.5196 3.1946 10.4333 2.74609 10.2607 2.38175C10.0903 2.01527 9.85591 1.73828 9.55762 1.55078C9.26145 1.36115 8.92587 1.26634 8.55087 1.26634C8.17374 1.26634 7.83709 1.36115 7.54093 1.55078C7.24476 1.73828 7.01039 2.01527 6.8378 2.38175C6.66735 2.74609 6.58212 3.1946 6.58212 3.72727C6.58212 4.25994 6.66735 4.70952 6.8378 5.07599C7.01039 5.44034 7.24476 5.71733 7.54093 5.90696C7.83709 6.09446 8.17374 6.18821 8.55087 6.18821C8.92587 6.18821 9.26145 6.09446 9.55762 5.90696C9.85591 5.71733 10.0903 5.44034 10.2607 5.07599C10.4333 4.70952 10.5196 4.25994 10.5196 3.72727ZM16.2988 2.17401C16.2647 1.87145 16.1241 1.63707 15.877 1.47088C15.6298 1.30256 15.3187 1.21839 14.9437 1.21839C14.6752 1.21839 14.443 1.26101 14.247 1.34624C14.051 1.42933 13.8986 1.54439 13.79 1.69141C13.6834 1.83629 13.6301 2.00142 13.6301 2.18679C13.6301 2.34233 13.6664 2.47656 13.7388 2.58949C13.8134 2.70241 13.9103 2.79723 14.0297 2.87393C14.1511 2.94851 14.2811 3.01136 14.4196 3.0625C14.5581 3.11151 14.6912 3.15199 14.8191 3.18395L15.4583 3.35014C15.6671 3.40128 15.8812 3.47053 16.1007 3.55788C16.3201 3.64524 16.5236 3.7603 16.7111 3.90305C16.8986 4.04581 17.0499 4.22266 17.165 4.43359C17.2821 4.64453 17.3407 4.89702 17.3407 5.19105C17.3407 5.56179 17.2449 5.89098 17.0531 6.17862C16.8635 6.46626 16.5875 6.69318 16.2253 6.85938C15.8652 7.02557 15.4295 7.10866 14.9181 7.10866C14.4281 7.10866 14.0041 7.03089 13.6461 6.87536C13.2882 6.71982 13.008 6.49929 12.8056 6.21378C12.6032 5.92614 12.4913 5.58523 12.47 5.19105H13.4608C13.4799 5.42756 13.5566 5.62464 13.6909 5.78232C13.8272 5.93786 14.0009 6.05398 14.2118 6.13068C14.4249 6.20526 14.6582 6.24254 14.9118 6.24254C15.1909 6.24254 15.4391 6.19886 15.6564 6.11151C15.8759 6.02202 16.0485 5.89844 16.1742 5.74077C16.2999 5.58097 16.3627 5.39453 16.3627 5.18146C16.3627 4.98757 16.3074 4.82884 16.1966 4.70526C16.0879 4.58168 15.9398 4.4794 15.7523 4.39844C15.5669 4.31747 15.3571 4.24609 15.1227 4.1843L14.3493 3.97337C13.8251 3.83061 13.4096 3.62074 13.1028 3.34375C12.7981 3.06676 12.6458 2.70028 12.6458 2.24432C12.6458 1.86719 12.748 1.538 12.9526 1.25675C13.1571 0.975497 13.4341 0.757102 13.7836 0.601562C14.133 0.443892 14.5272 0.365057 14.9661 0.365057C15.4093 0.365057 15.8002 0.442827 16.139 0.598366C16.4799 0.753906 16.7484 0.96804 16.9444 1.24077C17.1404 1.51136 17.2427 1.82244 17.2512 2.17401H16.2988ZM18.1981 1.30469V0.454545H23.2638V1.30469H21.2215V7H20.2371V1.30469H18.1981Z" fill="#49CC90" />
</svg>
  