<svg width="22" height="9" viewBox="0 0 22 9" fill="none" xmlns="http://www.w3.org/2000/svg">
  <path d="M0.223145 8V-2.38419e-07H3.07471C3.6971 -2.38419e-07 4.21273 0.113281 4.62158 0.339843C5.03044 0.566406 5.33643 0.876302 5.53955 1.26953C5.74268 1.66016 5.84424 2.10026 5.84424 2.58984C5.84424 3.08203 5.74137 3.52474 5.53564 3.91797C5.33252 4.30859 5.02523 4.61849 4.61377 4.84766C4.20492 5.07422 3.69059 5.1875 3.0708 5.1875H1.10986V4.16406H2.96143C3.35466 4.16406 3.67367 4.09635 3.91846 3.96094C4.16325 3.82292 4.34294 3.63542 4.45752 3.39844C4.5721 3.16146 4.62939 2.89193 4.62939 2.58984C4.62939 2.28776 4.5721 2.01953 4.45752 1.78516C4.34294 1.55078 4.16195 1.36719 3.91455 1.23438C3.66976 1.10156 3.34684 1.03516 2.9458 1.03516H1.43018V8H0.223145ZM12.4038 -2.38419e-07H13.6147V5.26172C13.6147 5.82161 13.4832 6.31771 13.2202 6.75C12.9572 7.17969 12.5874 7.51823 12.1108 7.76562C11.6343 8.01042 11.0757 8.13281 10.4351 8.13281C9.79704 8.13281 9.23975 8.01042 8.76318 7.76562C8.28662 7.51823 7.91683 7.17969 7.65381 6.75C7.39079 6.31771 7.25928 5.82161 7.25928 5.26172V-2.38419e-07H8.46631V5.16406C8.46631 5.52604 8.54574 5.84766 8.70459 6.12891C8.86605 6.41016 9.09391 6.63151 9.38818 6.79297C9.68245 6.95182 10.0314 7.03125 10.4351 7.03125C10.8413 7.03125 11.1916 6.95182 11.4858 6.79297C11.7827 6.63151 12.0093 6.41016 12.1655 6.12891C12.3244 5.84766 12.4038 5.52604 12.4038 5.16406V-2.38419e-07ZM14.9751 1.03906V-2.38419e-07H21.1665V1.03906H18.6704V8H17.4673V1.03906H14.9751Z" fill="#FCA130" />
</svg>
  